<?xml version="1.0" encoding="UTF-8" standalone="no"?>
<svg
   xmlns:dc="http://purl.org/dc/elements/1.1/"
   xmlns:cc="http://web.resource.org/cc/"
   xmlns:rdf="http://www.w3.org/1999/02/22-rdf-syntax-ns#"
   xmlns:svg="http://www.w3.org/2000/svg"
   xmlns="http://www.w3.org/2000/svg"
   xmlns:sodipodi="http://sodipodi.sourceforge.net/DTD/sodipodi-0.dtd"
   xmlns:inkscape="http://www.inkscape.org/namespaces/inkscape"
   width="538.559"
   height="639.682"
   id="svg2"
   sodipodi:version="0.32"
   inkscape:version="0.45.1"
   sodipodi:docname="POL_Pieniężno_COA.svg"
   inkscape:output_extension="org.inkscape.output.svg.inkscape"
   sodipodi:docbase="C:\Users\Mistrz\Desktop">
  <metadata
     id="metadata23">
    <rdf:RDF>
      <cc:Work
         rdf:about="">
        <dc:format>image/svg+xml</dc:format>
        <dc:type
           rdf:resource="http://purl.org/dc/dcmitype/StillImage" />
      </cc:Work>
    </rdf:RDF>
  </metadata>
  <sodipodi:namedview
     inkscape:window-height="480"
     inkscape:window-width="640"
     inkscape:pageshadow="2"
     inkscape:pageopacity="0.0"
     guidetolerance="10.0"
     gridtolerance="10.0"
     objecttolerance="10.0"
     borderopacity="1.0"
     bordercolor="#666666"
     pagecolor="#ffffff"
     id="base" />
  <defs
     id="defs4">
    <marker
       id="ArrowEnd"
       viewBox="0 0 10 10"
       refX="0"
       refY="5"
       markerUnits="strokeWidth"
       markerWidth="4"
       markerHeight="3"
       orient="auto">
      <path
         d="M 0 0 L 10 5 L 0 10 z"
         id="path7" />
    </marker>
    <marker
       id="ArrowStart"
       viewBox="0 0 10 10"
       refX="10"
       refY="5"
       markerUnits="strokeWidth"
       markerWidth="4"
       markerHeight="3"
       orient="auto">
      <path
         d="M 10 0 L 0 5 L 10 10 z"
         id="path10" />
    </marker>
    <marker
       id="marker2195"
       viewBox="0 0 10 10"
       orient="auto"
       markerHeight="3"
       markerWidth="4"
       refY="5"
       refX="10"
       markerUnits="strokeWidth">
      <path
         id="path2197"
         d="M 10,0 L 0,5 L 10,10 L 10,0 z " />
    </marker>
    <marker
       id="marker2191"
       viewBox="0 0 10 10"
       orient="auto"
       markerHeight="3"
       markerWidth="4"
       refY="5"
       refX="0"
       markerUnits="strokeWidth">
      <path
         id="path2193"
         d="M 0,0 L 10,5 L 0,10 L 0,0 z " />
    </marker>
  </defs>
  <path
     id="path14"
     d="M 0,0.00402832 L 538.559,0.00402832 L 538.559,377.844 C 534.168,456.805 504.696,508.934 468.207,553.551 C 368.907,663.399 180.516,673.161 72.1326,553.895 C 27.1524,505.161 4.3789,445.872 0.00389862,377.84 L 0.00389862,0"
     style="fill:#000000;fill-rule:evenodd;stroke:none" />
  <path
     id="path16"
     d="M 10.8203,11 L 527.739,11 L 527.739,376.496 C 523.524,452.875 495.239,503.305 460.215,546.465 C 364.907,652.727 184.082,662.168 80.0546,546.801 C 36.8828,499.657 15.0234,442.305 10.8281,376.496 L 10.8281,11 L 10.8203,11 z M 265.641,326.934 L 364.118,424.868 C 355.844,432.356 342.598,441.766 331.551,450.668 L 340.485,461.122 C 352.133,452.051 363.579,442.372 374.735,431.809 C 375.848,434.793 378.207,436.539 381.805,437.036 C 383.539,441.329 386.766,443.879 391.481,444.688 C 392.782,448.793 395.575,451.411 399.856,452.528 C 401.594,458.004 404.571,460.493 408.789,459.996 C 409.965,465.036 412.883,467.59 417.536,467.649 C 417.594,472.688 420.079,475.055 426.094,475.118 C 426.899,481.34 429.692,483.829 434.469,482.586 C 434.903,487.438 437.321,490.055 441.727,490.426 C 435.579,508.864 457.457,516.364 469.086,502.746 C 480.407,489.493 472.524,473.586 453.266,476.606 C 453.809,472.094 451.114,469.356 446.196,467.832 C 446.258,463.911 443.344,461.239 437.45,459.805 C 437.946,454.836 435.469,450.84 430.008,451.778 C 430.813,447.36 428.582,444.25 422.938,442.817 C 423.586,437.746 419.805,435.067 414.004,433.481 C 413.696,427.946 410.344,425.204 405.071,424.145 C 404.391,418.856 402.528,415.496 398.372,415.184 C 397.813,413.504 397.629,412.012 395.579,411.266 C 405.895,401.043 415.227,389.5 424.059,377.286 L 414.567,368.325 C 405.942,379.59 398.622,391.414 388.641,402.379 L 289.168,303.368 L 363.286,229.133 C 367.887,229.961 369.321,228.938 371.981,225.141 C 378.422,230.68 387.426,222.575 383.336,216.524 L 379.653,213.446 C 380.524,212.895 381.711,212.657 381.801,210.368 L 385.176,212.829 C 390.188,215.801 393.563,214.672 395.305,209.446 C 403.895,232.536 419.856,243.719 443.184,243.004 C 446.864,250.289 457.403,248.442 457.301,239.313 C 484.872,225.024 489.782,198.598 475.102,170.039 C 477.329,169.145 480.211,168.68 483.75,168.657 C 485.27,168.68 486.137,167.067 484.391,165.778 C 481.938,164.493 479.754,162.793 478.168,160.192 C 505.395,139.414 510.688,116.832 497.809,92.766 C 501.899,84.661 494.743,75.938 487.375,81.375 C 463.719,64.317 432.872,74.629 417.704,100.461 L 410.34,92.149 C 409.524,95.637 409.36,103.383 407.887,102.614 C 379.934,87.993 348.883,97.332 338.829,120.778 C 331.258,120.063 324.301,128.575 334.532,135.246 C 334.125,158.543 345.989,174.45 370.133,182.969 C 364.711,182.661 360.204,189.692 367.364,195.438 C 365.196,195.731 365.383,196.653 364.469,198.207 L 361.239,194.664 C 356.125,191.485 349.067,196.61 352.032,205.438 C 348.555,207.696 347.84,209.645 348.961,213.688 L 274.125,288.399 L 75.9956,91.188 L 47.3789,86.493 L 50.957,113.43 L 250.555,311.93 L 86.7306,475.473 C 83.2066,479.45 82.6406,483.258 83.7696,486.36 C 82.7816,486.063 81.7346,485.899 80.6446,485.899 C 74.6756,485.899 69.8047,490.766 69.8047,496.739 C 69.8047,502.707 74.6716,507.579 80.6446,507.579 C 86.6136,507.579 91.4846,502.711 91.4846,496.739 C 91.4846,495.395 91.2386,494.106 90.7856,492.914 C 94.1796,494.149 98.0706,494.008 100.985,491.86 L 120.278,472.536 L 127.114,479.942 L 108.704,498.411 L 161.266,550.246 L 197.496,513.606 L 178.789,495.735 L 162.754,511.52 L 147.907,496.926 L 164.239,480.543 L 147.61,464.161 L 163.348,449.266 L 179.383,465.352 L 195.715,448.672 L 209.969,463.567 L 193.637,480.246 L 212.938,498.118 L 248.872,462.372 L 197.2,410.836 L 178.176,429.594 L 171.387,421.352 L 265.641,326.95 L 265.641,326.934 z M 361.243,126.614 C 370.243,108.039 398.172,107.731 406.36,123.844 C 401.657,127.743 402.496,132.528 405.133,135.848 C 407.77,139.168 410.86,138.926 414.34,138 C 415.977,144.774 419.555,147.133 425.082,145.079 C 430.606,143.028 431.934,138.489 427.813,133.36 C 441.133,133.414 439.707,117.887 428.762,116.45 C 434.645,95.207 452.75,89.664 470.5,97.055 C 465.692,105.524 473.77,111.27 480.934,109.059 C 490.243,127.633 477.559,148.465 460.372,149.391 C 462.59,140.293 445.797,137.278 445.09,149.664 C 439.161,145.903 432.993,148.45 432.512,154.313 C 431.797,159.239 436.129,163.036 442.575,162.317 C 438.778,166.219 441.543,171.348 445.028,174.016 C 448.301,175.45 452.188,174.118 455.461,170.629 C 471.832,188.793 467.125,205.11 452.086,216.809 C 448.813,209.731 437.661,211.473 437.969,220.192 C 415.18,219.012 406.231,203.926 410.039,182.633 C 415.977,185.825 420.629,183.254 422.622,178.325 C 424.61,173.391 422.622,171.758 418.325,169.09 C 424.563,166.832 426.86,161.454 422.313,156.161 C 417.766,150.868 410.957,153.184 408.809,160.161 C 407.786,154.004 401.246,153.489 397.149,156.469 C 393.051,159.446 392.649,163.239 395.309,167.243 C 367.938,173.868 358.411,155.653 356.657,141.325 C 364.469,143.016 368.34,131.586 361.239,126.606 L 361.243,126.614 z M 244.289,84.278 C 226.77,94.84 219.258,112.528 219.942,133.629 C 220.067,155.934 222.469,177.559 214.188,197.129 C 225.25,195.789 236.766,195.364 243.282,195.848 C 256.661,199.004 269.512,197.891 282.286,196.168 C 292.016,195.059 297.204,193.036 314.895,194.887 C 304.743,176.973 306.868,157.231 306.266,139.086 C 306.887,117.555 300.305,92.004 282.579,83.7271 L 281.528,79.789 C 283.106,73.34 287.575,69.938 290.602,65.008 C 291.122,62.399 289.301,61.485 287.086,61.481 L 279.735,61.161 C 278.434,62.891 275.047,62.016 272.704,62.442 C 265.129,65.075 267.969,62.75 265.989,62.125 C 259.778,60.622 259.809,62.766 256.719,63.086 C 254.59,62.661 253.891,60.664 250.329,61.805 C 246.625,62.668 246.039,59.364 238.821,62.446 C 236.868,62.981 236.325,64.231 237.204,66.192 L 244.536,78.172 C 243.473,79.9771 242.262,83.133 244.313,84.282 L 244.289,84.278 z M 52.7891,330.891 C 63.3477,348.411 81.0386,355.922 102.141,355.239 C 124.446,355.114 146.071,352.711 165.641,360.993 C 164.305,349.934 163.875,338.414 164.36,331.899 C 167.516,318.52 166.403,305.668 164.676,292.895 C 163.567,283.164 161.543,277.977 163.395,260.286 C 145.481,270.438 125.739,268.313 107.594,268.914 C 86.0626,268.293 60.5117,274.875 52.2344,292.602 L 48.2969,293.653 C 41.8477,292.075 38.4453,287.606 33.5156,284.579 C 30.9063,284.063 29.9922,285.879 29.9922,288.094 L 29.6719,295.446 C 31.4024,296.746 30.5234,300.133 30.9531,302.477 C 33.5859,310.047 31.2617,307.211 30.6328,309.188 C 29.1289,315.399 31.2734,315.368 31.5938,318.457 C 31.168,320.586 29.1719,321.286 30.3125,324.848 C 31.1758,328.551 27.8711,329.133 30.9531,336.356 C 31.4883,338.309 32.7383,338.852 34.6992,337.973 L 46.6797,330.641 C 48.4844,331.704 51.6406,332.914 52.7891,330.864 L 52.7891,330.891 z M 476.289,290.391 C 465.727,272.872 448.039,265.36 426.938,266.043 C 404.633,266.168 383.008,268.571 363.438,260.289 C 364.778,271.348 365.204,282.868 364.719,289.383 C 361.563,302.762 362.676,315.614 364.399,328.387 C 365.508,338.118 367.532,343.305 365.68,360.996 C 383.594,350.844 403.336,352.969 421.481,352.364 C 443.012,352.985 468.563,346.403 476.84,328.676 L 480.778,327.625 C 487.227,329.204 490.629,333.672 495.559,336.696 C 498.168,337.215 499.082,335.395 499.086,333.18 L 499.407,325.829 C 497.676,324.528 498.551,321.141 498.125,318.797 C 495.493,311.227 497.817,314.063 498.442,312.086 C 499.946,305.875 497.801,305.907 497.481,302.817 C 497.907,300.688 499.903,299.989 498.762,296.426 C 497.899,292.723 501.204,292.141 498.122,284.918 C 497.586,282.965 496.336,282.426 494.375,283.301 L 482.395,290.633 C 480.59,289.571 477.434,288.36 476.286,290.411"
     style="fill:#0000bc;fill-rule:evenodd;stroke:none;fill-opacity:1" />
  <path
     id="path18"
     d="M 80.6716,488.579 C 85.1836,488.579 88.8636,492.258 88.8636,496.77 C 88.8636,501.282 85.1836,504.961 80.6716,504.961 C 76.1606,504.961 72.4806,501.282 72.4806,496.77 C 72.4806,492.258 76.1606,488.579 80.6716,488.579 z M 99.1996,489.473 C 93.5586,493.938 81.0856,487.09 88.2146,477.258 L 349.559,216.293 L 361.438,228.207 L 99.2036,489.469 L 99.1996,489.473 z M 179.086,499.301 L 193.043,513.895 L 161.266,546.661 L 112.86,498.403 L 131.27,480.231 L 123.254,471 L 169.286,425.125 L 177.598,433.168 L 197.196,414.7 L 244.516,461.766 L 212.34,494.532 L 197.789,480.235 L 213.528,464.149 L 195.414,445.383 L 179.082,461.168 L 163.344,446.274 L 144.637,464.743 L 160.079,480.528 L 144.637,496.614 L 163.047,515.676 L 179.082,499.293 L 179.086,499.301 z M 358.465,128.707 C 364.633,132.305 362.86,139.637 355.528,138.309 L 335.602,133.207 C 329.852,129.504 331.774,123.032 337.68,123.946 L 358.465,128.711 L 358.465,128.707 z M 473.579,97.981 C 469.59,103.727 474.496,108.856 480.942,104.137 L 495.059,90.442 C 498.297,85.383 493.528,80.434 487.696,83.821 L 473.579,97.981 z M 440.739,221.746 C 439.719,216 445.137,212.102 449.637,218.364 L 453.625,235.602 C 456.797,246.274 448.614,246.481 445.954,241.758 L 440.739,221.746 z M 378.098,184.559 L 385.211,184.805 L 384.555,191.122 L 378.102,184.555 L 378.098,184.559 z M 409.887,124 C 396.274,103.645 368.403,106.657 358.489,126.004 L 341.602,121.996 C 351.215,99.524 383.832,88.954 407.161,106.602 C 409.715,108.243 410.555,106.196 410.661,104.141 L 411.782,97.594 L 416.852,102.891 C 418.59,104.43 419.043,104.45 419.86,102.297 C 432.161,78.055 464.172,66.832 484.461,83.055 L 472.352,94.911 C 449.153,83.918 430.782,95.536 424.465,119.539 C 429.832,118.977 436.684,119.875 434.95,127.266 C 433.965,131.465 428.465,132.336 424.122,129.832 L 422.946,131.246 C 429.184,136.274 430.016,141.649 423.977,143.215 C 417.942,144.782 415.868,139.543 418.633,133.387 L 415.567,132.465 C 413.727,136.262 410.063,136.582 406.973,134.309 C 403.887,132.039 404.465,127.797 409.883,124 L 409.887,124 z M 387.637,190.961 L 395.922,189.422 C 395.016,221.235 412.637,238.801 442.266,241.145 L 437.664,222.368 C 417.52,221.875 402.008,208.774 408.508,181.114 C 409.223,179.27 409.633,179.27 411.575,180.192 C 419.414,184.192 427.231,173.422 414.641,170.036 C 412.86,169.391 412.989,168.481 415.559,167.575 C 421.797,166.528 423.27,161.543 420.508,157.543 C 416.11,154.157 412.286,156.602 410.34,163.883 C 409.145,165.762 408.036,164.75 407.707,162.875 C 407.707,157.645 402.934,155.532 398.637,157.996 C 395.364,161.176 395.711,164.707 398.985,167.887 C 376.274,177.532 357.86,166.864 353.868,140.489 L 336.68,136.18 C 336,158.102 353.684,182.735 388.856,182.055 C 387.793,185.903 387.387,188.879 387.629,190.981 L 387.637,190.961 z M 452.403,218.668 C 470.016,210.102 475.481,181.676 454.813,167.254 C 452.051,172.641 448.938,174.063 445.473,171.516 C 442.672,168.801 442.95,165.36 445.954,161.711 C 447.329,160.079 446.297,159.059 443.489,159.289 C 437.024,161.696 434.137,158.664 435.2,153.551 C 436.684,148.786 442.215,148.778 445.508,153.317 C 447.098,154.844 448.106,154.625 448.532,152.657 C 445.629,146.063 449.633,144.047 452.438,143.711 C 455.457,143.348 458.336,144.829 457.914,151.559 C 472.793,152.723 494.907,137.114 482.754,106.262 L 496.153,93.95 C 510.055,120.258 496.801,146.598 473.258,159.875 L 480.317,166.032 L 473.567,166.954 C 470.5,167.364 470.5,167.774 472.649,171.879 C 485.946,193.25 483.727,224.567 456.996,236.223 L 452.395,218.676 L 452.403,218.668 z M 392.551,192.192 L 387.286,193.891 L 393.02,199.797 L 392.551,192.188 L 392.551,192.192 z M 373.829,184.801 C 368.407,182.75 364.52,187.778 367.383,192.496 L 385.184,210.352 C 391.118,214.043 395.821,209.122 391.934,202.965 L 373.829,184.801 z M 368.301,197.735 L 379.961,209.125 C 380.973,210.629 379.317,212.61 377.817,211.278 L 366.461,200.196 C 365.348,198.274 366.586,197.454 368.301,197.735 z M 379.657,218.055 C 382.11,222.364 378.739,225.133 375.055,223.594 L 354.188,203.891 C 351.735,199.993 354.801,195.477 359.098,197.122 L 379.661,218.055 L 379.657,218.055 z M 353.571,207.278 L 370.145,223.286 C 370.246,225.746 367.282,228.516 364.93,226.672 L 350.813,212.821 C 349.282,209.434 351.118,208.512 353.575,207.282 L 353.571,207.278 z M 397.075,418.18 L 385.536,436.289 C 384.981,439.524 390.559,443.508 391.864,441.891 L 401.356,425.086 C 403.961,421.539 399.743,415.5 397.075,418.18 z M 394.844,416.5 L 395.188,413.719 L 393.539,414.633 L 378.09,430.317 C 377.969,434.047 381.934,435.168 383.489,433.864 L 394.84,416.5 L 394.844,416.5 z M 404.524,427.145 L 394.844,442.829 C 392.551,446.313 396.579,451.852 401.36,448.801 L 410.664,436.106 C 414.012,433.305 407.317,424.903 404.524,427.145 z M 414.204,437.227 L 403.223,451.043 C 401.239,455.024 406.633,459.196 409.364,456.829 L 419.414,442.641 C 419.106,439.965 416.004,434.676 414.204,437.227 z M 421.832,445.817 L 411.594,459.446 C 410.789,462.246 415.75,466.539 417.547,464.485 L 427.411,452.536 C 429.27,447.68 424.25,444.133 421.829,445.813 L 421.832,445.817 z M 429.094,454.778 L 420.161,466.164 C 419.231,469.211 423.137,475.809 426.86,471.391 L 434.305,461.125 C 436.661,458.825 432.879,452.602 429.094,454.778 z M 436.911,463.18 L 429.282,474.008 C 427.856,477.68 433.313,482.098 435.61,479.981 L 441.938,470.086 C 443.797,466.852 440.825,461.559 436.914,463.18 L 436.911,463.18 z M 444.172,472.332 C 446.653,469.657 451.18,473.325 449.383,478.305 L 443.243,486.332 C 440.762,489.379 435.86,485.336 437.661,481.664 L 444.176,472.329 L 444.172,472.332 z M 335.09,450.86 L 340.301,457.766 C 362.473,441.926 398.477,408.325 421.086,377.102 L 414.946,371.688 C 392.118,404.262 365.368,431.231 335.09,450.86 z M 456.086,479.801 C 467.856,476.844 476.129,486.848 468.93,498.286 C 465.364,503.95 460.348,508.239 451.993,507.059 C 447.418,506.414 444.512,502.696 443.805,497.352 C 442.707,489.098 448.957,481.594 456.09,479.801"
     style="fill:#ffcc01;fill-rule:evenodd;stroke:none;fill-opacity:1" />
  <path
     id="path20"
     d="M 271.68,290.094 L 74.0746,93.668 L 49.7617,89.481 L 53.7148,113.332 L 252.801,309.692 L 261.09,301.313 L 62.2891,103.848 C 60.8828,101.684 62.5547,101.282 64.6758,102.653 L 263.629,298.856 L 271.672,290.098 L 271.68,290.094 z M 267.907,324.532 L 366.442,422.93 L 375.766,414.266 L 276.633,316.086 L 267.903,324.532 L 267.907,324.532 z M 287.289,305.09 L 386.356,403.84 L 377.563,412.219 L 278.653,314.133 L 287.293,305.09 L 287.289,305.09 z M 247.274,79.7271 C 245.094,81.082 244.778,82.114 246.332,82.825 L 252.223,82.825 C 253.598,82.704 253.985,80.055 252.223,79.7271 L 247.274,79.7271 z M 257.079,80.309 C 254.954,80.129 254.727,82.235 257.082,83.2 L 265.118,83.454 C 267.207,83.082 266.789,80.422 263.184,80.508 L 257.079,80.309 z M 270.649,80.286 C 268.922,80.922 268.864,81.946 270.176,83.196 L 275.75,83.36 C 280.551,83.168 280.793,82.266 276.473,80.649 L 270.649,80.289 L 270.649,80.286 z M 257.543,78.52 C 256.696,74.766 254.625,69.868 252.387,66.11 C 251.125,64.543 249.079,66.11 247.422,66.11 C 244.286,67.071 243.235,62.754 239.122,64.86 C 238.575,69 243.606,69.903 245.86,77.637 C 248.602,78.051 252.641,77.176 254.09,78.887 L 257.539,78.524 L 257.543,78.52 z M 263.309,77.786 L 259.715,77.567 L 259.625,68.856 L 258.262,64.207 C 261.086,63.188 263.61,63.383 265.829,64.789 C 266.711,67.59 273.454,65.039 271.993,68.1021 C 272.746,71.106 272.11,73.414 270.094,75.032 C 269.664,78.278 267.567,79.762 263.317,77.786 L 263.309,77.786 z M 272.262,77.571 L 278.809,66.59 C 280.196,64.094 281.883,63.418 283.879,64.567 L 287.813,65.493 C 284.372,69.918 281.157,74.731 280.153,79.161 C 279.016,79.489 275.762,77.235 272.262,77.571 z M 250.184,108.528 C 247.973,111.368 246.961,110.536 248.325,107.215 C 250.911,99.895 253.977,92.993 257.606,87.758 C 258.829,90.567 257.102,96.59 250.188,108.532 L 250.184,108.528 z M 276.172,106.098 C 277.973,107.864 277.954,108.489 278.313,105.071 C 279.094,97.192 275.938,91.918 272.649,87.098 C 272.254,92.348 273.325,98.61 276.172,106.098 z M 253.926,84.668 C 252.645,86.528 248.496,85.254 245.778,85.551 C 238.356,90.739 233.176,95.68 229.914,101.223 C 224.383,110.012 222.637,122.161 222.657,135.481 C 222.473,155.141 224.332,174.805 218.239,194.696 C 250.071,191.442 249.207,196.782 264.063,196.231 C 280.454,196.2 291.391,190.918 311.196,192.02 C 306.989,184.219 304.938,176.418 304.372,168.618 C 304.579,137.801 303.18,112.797 297.325,103.887 C 293.157,96.063 288.61,89.563 283.231,85.993 C 280.266,84.657 277.696,84.508 275.524,85.551 C 279.629,92.211 283.672,107.93 279.266,112.282 C 275.25,114.551 270.172,100.844 269.965,88.411 L 268.926,85.407 L 267.649,84.422 C 265.766,85.4771 263.743,85.973 261.653,86.215 C 258.36,106.782 247.934,115.465 246.676,115.157 C 240.957,113.036 248.379,96.161 253.723,88.426 C 254.707,87.309 255.301,84.75 253.942,84.672 L 253.926,84.668 z M 256.457,69.028 C 256.407,67.391 257.641,65.364 255.395,64.071 L 252.282,63.235 C 253.672,65.164 254.309,64.3521 256.461,69.032 L 256.457,69.028 z M 274.782,68.645 C 276.606,67.274 277.239,65.7 277.442,63.918 L 273.336,63.993 L 274.407,65.817 L 274.778,68.641 L 274.782,68.645 z M 244.063,62.696 C 245.204,64.45 246.746,64.778 248.7,63.684 C 247.157,63.356 245.079,62.032 244.063,62.696 z M 48.2383,327.907 C 49.5938,330.086 50.625,330.399 51.3398,328.844 L 51.3398,322.954 C 51.2188,321.579 48.5703,321.192 48.2383,322.954 L 48.2383,327.903 L 48.2383,327.907 z M 48.8203,318.102 C 48.6445,320.227 50.7461,320.454 51.7109,318.098 L 51.9648,310.063 C 51.5938,307.973 48.9336,308.391 49.0195,311.996 L 48.8203,318.102 z M 48.7969,304.532 C 49.4336,306.258 50.4531,306.317 51.707,305.004 L 51.8672,299.43 C 51.6758,294.629 50.7734,294.387 49.1563,298.707 L 48.7969,304.528 L 48.7969,304.532 z M 47.0352,317.637 C 43.2813,318.481 38.3828,320.555 34.625,322.793 C 33.0586,324.055 34.625,326.102 34.625,327.758 C 35.5859,330.895 31.2695,331.946 33.375,336.059 C 37.5156,336.606 38.418,331.575 46.1524,329.321 C 46.5664,326.579 45.6914,322.539 47.3984,321.086 L 47.0352,317.637 z M 46.2969,311.872 L 46.0781,315.465 L 37.3672,315.555 L 32.7227,316.918 C 31.7031,314.094 31.8984,311.571 33.3008,309.352 C 36.1016,308.469 33.5508,301.727 36.6133,303.188 C 39.6172,302.434 41.9297,303.071 43.543,305.086 C 46.7891,305.516 48.2734,307.614 46.2969,311.864 L 46.2969,311.872 z M 46.082,302.918 L 35.1016,296.372 C 32.6055,294.985 31.9297,293.297 33.082,291.301 L 34.0078,287.368 C 38.4336,290.809 43.2461,294.024 47.6758,295.028 C 48.0039,296.164 45.75,299.418 46.0859,302.918 L 46.082,302.918 z M 77.0426,324.996 C 79.8826,327.207 79.0506,328.219 75.7306,326.856 C 68.4102,324.27 61.5078,321.204 56.2734,317.575 C 59.082,316.356 65.1055,318.079 77.0466,324.993 L 77.0426,324.996 z M 74.6096,299.008 C 76.3746,297.207 76.9996,297.227 73.5816,296.868 C 65.7031,296.086 60.4297,299.243 55.6133,302.532 C 60.8633,302.926 67.125,301.856 74.6136,299.008 L 74.6096,299.008 z M 53.1797,321.25 C 55.0391,322.532 53.7656,326.68 54.0625,329.399 C 59.25,336.821 64.1953,342 69.7344,345.262 C 78.5236,350.793 90.6716,352.539 103.993,352.52 C 123.653,352.704 143.317,350.844 163.207,356.938 C 159.954,325.106 165.293,325.969 164.746,311.114 C 164.711,294.723 159.43,283.786 160.536,263.981 C 152.735,268.188 144.934,270.239 137.133,270.805 C 106.317,270.598 81.3126,271.996 72.4026,277.852 C 64.5742,282.02 58.0781,286.567 54.5078,291.946 C 53.1719,294.911 53.0234,297.481 54.0664,299.653 C 60.7266,295.547 76.4496,291.504 80.7966,295.911 C 83.0706,299.926 69.3594,305.004 56.9258,305.211 L 53.9219,306.25 L 52.9375,307.528 C 53.9922,309.411 54.4883,311.434 54.7305,313.524 C 75.2966,316.817 83.9806,327.243 83.6716,328.5 C 81.5506,334.219 64.6758,326.797 56.9414,321.454 C 55.8203,320.469 53.2656,319.875 53.1875,321.235 L 53.1797,321.25 z M 37.5391,318.723 C 35.9024,318.774 33.875,317.539 32.582,319.786 L 31.7461,322.899 C 33.6758,321.508 32.8633,320.875 37.5391,318.719 L 37.5391,318.723 z M 37.1563,300.399 C 35.7852,298.575 34.2109,297.942 32.4297,297.739 L 32.5039,301.844 L 34.3281,300.774 L 37.1524,300.403 L 37.1563,300.399 z M 31.207,331.118 C 32.9609,329.981 33.2891,328.434 32.1953,326.481 C 31.8672,328.024 30.543,330.106 31.207,331.118 z M 480.84,293.375 C 479.485,291.196 478.454,290.883 477.743,292.434 L 477.743,298.325 C 477.864,299.7 480.512,300.086 480.84,298.325 L 480.84,293.375 z M 480.258,303.18 C 480.434,301.055 478.332,300.829 477.368,303.184 L 477.114,311.219 C 477.485,313.309 480.145,312.891 480.059,309.286 L 480.258,303.18 z M 480.282,316.75 C 479.645,315.024 478.622,314.965 477.372,316.278 L 477.207,321.852 C 477.399,326.653 478.301,326.895 479.918,322.575 L 480.278,316.754 L 480.282,316.75 z M 482.043,303.645 C 485.797,302.801 490.696,300.727 494.454,298.489 C 496.016,297.227 494.454,295.18 494.454,293.524 C 493.489,290.387 497.809,289.336 495.704,285.223 C 491.563,284.676 490.661,289.707 482.926,291.961 C 482.512,294.704 483.387,298.743 481.676,300.196 L 482.039,303.645 L 482.043,303.645 z M 482.782,309.411 L 483,305.817 L 491.711,305.723 L 496.356,304.36 C 497.375,307.184 497.18,309.707 495.774,311.926 C 492.973,312.809 495.524,319.551 492.461,318.09 C 489.457,318.844 487.149,318.207 485.536,316.192 C 482.289,315.762 480.805,313.664 482.782,309.414 L 482.782,309.411 z M 482.996,318.364 L 493.977,324.911 C 496.473,326.297 497.149,327.989 496,329.981 L 495.075,333.914 C 490.649,330.473 485.836,327.258 481.407,326.254 C 481.079,325.118 483.332,321.864 482.996,318.364 z M 452.036,296.286 C 449.196,294.075 450.028,293.063 453.348,294.426 C 460.668,297.012 467.571,300.079 472.805,303.707 C 469.996,304.926 463.973,303.204 452.032,296.289 L 452.036,296.286 z M 454.465,322.278 C 452.7,324.079 452.075,324.059 455.493,324.418 C 463.372,325.2 468.645,322.043 473.461,318.754 C 468.211,318.36 461.95,319.43 454.461,322.278 L 454.465,322.278 z M 475.899,300.032 C 474.039,298.75 475.313,294.602 475.016,291.883 C 469.829,284.461 464.887,279.282 459.344,276.02 C 450.555,270.489 438.407,268.743 425.086,268.762 C 405.426,268.579 385.762,270.438 365.872,264.344 C 369.125,296.176 363.786,295.313 364.336,310.168 C 364.368,326.559 369.649,337.496 368.547,357.301 C 376.348,353.094 384.149,351.043 391.95,350.477 C 422.766,350.684 447.77,349.286 456.68,343.43 C 464.504,339.262 471.004,334.715 474.575,329.336 C 475.914,326.372 476.059,323.801 475.016,321.629 C 468.356,325.735 452.637,329.778 448.286,325.372 C 446.016,321.356 459.723,316.278 472.157,316.071 L 475.161,315.032 L 476.145,313.754 C 475.09,311.872 474.594,309.848 474.352,307.758 C 453.786,304.465 445.102,294.039 445.411,292.782 C 447.532,287.063 464.407,294.485 472.141,299.829 C 473.258,300.813 475.817,301.407 475.895,300.047 L 475.899,300.032 z M 491.539,302.559 C 493.176,302.508 495.204,303.743 496.496,301.496 L 497.332,298.379 C 495.403,299.77 496.215,300.407 491.536,302.559 L 491.539,302.559 z M 491.922,320.883 C 493.293,322.704 494.868,323.34 496.649,323.543 L 496.575,319.438 L 494.75,320.508 L 491.926,320.879 L 491.922,320.883 z M 497.872,290.164 C 496.118,291.305 495.789,292.848 496.883,294.801 C 497.211,293.254 498.536,291.176 497.872,290.164"
     style="fill:#fffdfd;fill-rule:evenodd;stroke:none" />
</svg>
